<mxfile host="app.diagrams.net" modified="2020-09-09T11:38:50.907Z" agent="5.0 (Windows NT 10.0; Win64; x64) AppleWebKit/537.36 (KHTML, like Gecko) Chrome/85.0.4183.83 Safari/537.36" etag="5k-6VOUid0Vsl9zj4d_r" version="13.6.9" type="github">
  <diagram id="C5RBs43oDa-KdzZeNtuy" name="Page-1">
    <mxGraphModel dx="1766" dy="588" grid="1" gridSize="10" guides="1" tooltips="1" connect="1" arrows="1" fold="1" page="1" pageScale="1" pageWidth="827" pageHeight="1169" math="0" shadow="0">
      <root>
        <mxCell id="WIyWlLk6GJQsqaUBKTNV-0" />
        <mxCell id="WIyWlLk6GJQsqaUBKTNV-1" parent="WIyWlLk6GJQsqaUBKTNV-0" />
        <mxCell id="-DNvlpLLM_qoHWP7UfvY-4" style="edgeStyle=orthogonalEdgeStyle;rounded=0;orthogonalLoop=1;jettySize=auto;html=1;exitX=0.5;exitY=1;exitDx=0;exitDy=0;entryX=0.5;entryY=0;entryDx=0;entryDy=0;endArrow=classic;endFill=1;strokeWidth=1;shadow=0;labelBackgroundColor=none;endSize=8;" edge="1" parent="WIyWlLk6GJQsqaUBKTNV-1" source="WIyWlLk6GJQsqaUBKTNV-3" target="-DNvlpLLM_qoHWP7UfvY-0">
          <mxGeometry relative="1" as="geometry" />
        </mxCell>
        <mxCell id="WIyWlLk6GJQsqaUBKTNV-3" value="Start of match (Sev)" style="rounded=1;whiteSpace=wrap;html=1;fontSize=12;glass=0;strokeWidth=1;shadow=0;" parent="WIyWlLk6GJQsqaUBKTNV-1" vertex="1">
          <mxGeometry x="354" y="20" width="120" height="40" as="geometry" />
        </mxCell>
        <mxCell id="-DNvlpLLM_qoHWP7UfvY-11" style="edgeStyle=orthogonalEdgeStyle;rounded=0;orthogonalLoop=1;jettySize=auto;html=1;exitX=0.5;exitY=1;exitDx=0;exitDy=0;entryX=0.5;entryY=0;entryDx=0;entryDy=0;shadow=0;labelBackgroundColor=none;endFill=1;endSize=8;strokeWidth=1;" edge="1" parent="WIyWlLk6GJQsqaUBKTNV-1" source="WIyWlLk6GJQsqaUBKTNV-6" target="-DNvlpLLM_qoHWP7UfvY-9">
          <mxGeometry relative="1" as="geometry" />
        </mxCell>
        <mxCell id="WIyWlLk6GJQsqaUBKTNV-6" value="Imposter?" style="rhombus;whiteSpace=wrap;html=1;shadow=0;fontFamily=Helvetica;fontSize=12;align=center;strokeWidth=1;spacing=6;spacingTop=-4;arcSize=20;" parent="WIyWlLk6GJQsqaUBKTNV-1" vertex="1">
          <mxGeometry x="270" y="120" width="100" height="80" as="geometry" />
        </mxCell>
        <mxCell id="-DNvlpLLM_qoHWP7UfvY-0" value="Crewmate?" style="rhombus;whiteSpace=wrap;html=1;" vertex="1" parent="WIyWlLk6GJQsqaUBKTNV-1">
          <mxGeometry x="460" y="120" width="100" height="80" as="geometry" />
        </mxCell>
        <mxCell id="-DNvlpLLM_qoHWP7UfvY-6" value="" style="endArrow=classic;html=1;shadow=0;labelBackgroundColor=none;strokeWidth=1;exitX=0.5;exitY=1;exitDx=0;exitDy=0;entryX=0.5;entryY=0;entryDx=0;entryDy=0;rounded=0;edgeStyle=orthogonalEdgeStyle;" edge="1" parent="WIyWlLk6GJQsqaUBKTNV-1" source="WIyWlLk6GJQsqaUBKTNV-3" target="WIyWlLk6GJQsqaUBKTNV-6">
          <mxGeometry width="50" height="50" relative="1" as="geometry">
            <mxPoint x="390" y="140" as="sourcePoint" />
            <mxPoint x="440" y="90" as="targetPoint" />
          </mxGeometry>
        </mxCell>
        <mxCell id="-DNvlpLLM_qoHWP7UfvY-15" style="edgeStyle=orthogonalEdgeStyle;rounded=0;orthogonalLoop=1;jettySize=auto;html=1;exitX=0.5;exitY=1;exitDx=0;exitDy=0;shadow=0;labelBackgroundColor=none;endFill=1;endSize=8;strokeWidth=1;" edge="1" parent="WIyWlLk6GJQsqaUBKTNV-1" source="-DNvlpLLM_qoHWP7UfvY-9" target="-DNvlpLLM_qoHWP7UfvY-14">
          <mxGeometry relative="1" as="geometry" />
        </mxCell>
        <mxCell id="-DNvlpLLM_qoHWP7UfvY-20" style="edgeStyle=orthogonalEdgeStyle;rounded=0;orthogonalLoop=1;jettySize=auto;html=1;exitX=0.5;exitY=1;exitDx=0;exitDy=0;entryX=0.5;entryY=0;entryDx=0;entryDy=0;shadow=0;labelBackgroundColor=none;endFill=1;endSize=8;strokeWidth=1;" edge="1" parent="WIyWlLk6GJQsqaUBKTNV-1" source="-DNvlpLLM_qoHWP7UfvY-9" target="-DNvlpLLM_qoHWP7UfvY-16">
          <mxGeometry relative="1" as="geometry" />
        </mxCell>
        <mxCell id="-DNvlpLLM_qoHWP7UfvY-9" value="Other IMP?" style="rhombus;whiteSpace=wrap;html=1;shadow=0;fontFamily=Helvetica;fontSize=12;align=center;strokeWidth=1;spacing=6;spacingTop=-4;arcSize=20;" vertex="1" parent="WIyWlLk6GJQsqaUBKTNV-1">
          <mxGeometry x="190" y="240" width="100" height="80" as="geometry" />
        </mxCell>
        <mxCell id="-DNvlpLLM_qoHWP7UfvY-23" value="" style="edgeStyle=orthogonalEdgeStyle;rounded=0;orthogonalLoop=1;jettySize=auto;html=1;shadow=0;labelBackgroundColor=none;endFill=1;endSize=8;strokeWidth=1;" edge="1" parent="WIyWlLk6GJQsqaUBKTNV-1" source="-DNvlpLLM_qoHWP7UfvY-14" target="-DNvlpLLM_qoHWP7UfvY-21">
          <mxGeometry relative="1" as="geometry" />
        </mxCell>
        <mxCell id="-DNvlpLLM_qoHWP7UfvY-14" value="Salty or Blank" style="rounded=0;whiteSpace=wrap;html=1;shadow=0;strokeWidth=1;" vertex="1" parent="WIyWlLk6GJQsqaUBKTNV-1">
          <mxGeometry x="90" y="360" width="100" height="60" as="geometry" />
        </mxCell>
        <mxCell id="-DNvlpLLM_qoHWP7UfvY-16" value="Flare, Ria, Saka, or Chip" style="rounded=0;whiteSpace=wrap;html=1;shadow=0;strokeWidth=1;" vertex="1" parent="WIyWlLk6GJQsqaUBKTNV-1">
          <mxGeometry x="290" y="360" width="100" height="60" as="geometry" />
        </mxCell>
        <mxCell id="-DNvlpLLM_qoHWP7UfvY-28" value="" style="edgeStyle=orthogonalEdgeStyle;rounded=0;orthogonalLoop=1;jettySize=auto;html=1;shadow=0;labelBackgroundColor=none;strokeWidth=1;exitX=0;exitY=0.5;exitDx=0;exitDy=0;" edge="1" parent="WIyWlLk6GJQsqaUBKTNV-1" source="-DNvlpLLM_qoHWP7UfvY-21" target="-DNvlpLLM_qoHWP7UfvY-27">
          <mxGeometry relative="1" as="geometry" />
        </mxCell>
        <mxCell id="-DNvlpLLM_qoHWP7UfvY-21" value="Want to play aggressive?" style="rhombus;whiteSpace=wrap;html=1;shadow=0;fontFamily=Helvetica;fontSize=12;align=center;strokeWidth=1;spacing=6;spacingTop=-4;arcSize=20;" vertex="1" parent="WIyWlLk6GJQsqaUBKTNV-1">
          <mxGeometry x="90" y="480" width="100" height="80" as="geometry" />
        </mxCell>
        <mxCell id="-DNvlpLLM_qoHWP7UfvY-34" value="" style="edgeStyle=orthogonalEdgeStyle;rounded=0;orthogonalLoop=1;jettySize=auto;html=1;shadow=0;labelBackgroundColor=none;strokeWidth=1;entryX=0.5;entryY=0;entryDx=0;entryDy=0;" edge="1" parent="WIyWlLk6GJQsqaUBKTNV-1" source="-DNvlpLLM_qoHWP7UfvY-24" target="-DNvlpLLM_qoHWP7UfvY-33">
          <mxGeometry relative="1" as="geometry" />
        </mxCell>
        <mxCell id="-DNvlpLLM_qoHWP7UfvY-24" value="Hang back, check TECHS" style="whiteSpace=wrap;html=1;shadow=0;strokeWidth=1;spacing=6;spacingTop=-4;arcSize=20;" vertex="1" parent="WIyWlLk6GJQsqaUBKTNV-1">
          <mxGeometry x="190" y="585" width="120" height="60" as="geometry" />
        </mxCell>
        <mxCell id="-DNvlpLLM_qoHWP7UfvY-26" value="" style="endArrow=classic;html=1;shadow=0;labelBackgroundColor=none;strokeWidth=1;exitX=1;exitY=0.5;exitDx=0;exitDy=0;entryX=0.5;entryY=0;entryDx=0;entryDy=0;edgeStyle=orthogonalEdgeStyle;rounded=0;" edge="1" parent="WIyWlLk6GJQsqaUBKTNV-1" source="-DNvlpLLM_qoHWP7UfvY-21" target="-DNvlpLLM_qoHWP7UfvY-24">
          <mxGeometry width="50" height="50" relative="1" as="geometry">
            <mxPoint x="280" y="520" as="sourcePoint" />
            <mxPoint x="330" y="470" as="targetPoint" />
          </mxGeometry>
        </mxCell>
        <mxCell id="-DNvlpLLM_qoHWP7UfvY-36" value="" style="edgeStyle=orthogonalEdgeStyle;rounded=0;orthogonalLoop=1;jettySize=auto;html=1;shadow=0;labelBackgroundColor=none;strokeWidth=1;" edge="1" parent="WIyWlLk6GJQsqaUBKTNV-1" source="-DNvlpLLM_qoHWP7UfvY-27" target="-DNvlpLLM_qoHWP7UfvY-35">
          <mxGeometry relative="1" as="geometry" />
        </mxCell>
        <mxCell id="-DNvlpLLM_qoHWP7UfvY-27" value="Loop around map, faking tasks." style="whiteSpace=wrap;html=1;shadow=0;strokeWidth=1;spacing=6;spacingTop=-4;arcSize=20;" vertex="1" parent="WIyWlLk6GJQsqaUBKTNV-1">
          <mxGeometry x="-30" y="585" width="120" height="60" as="geometry" />
        </mxCell>
        <mxCell id="-DNvlpLLM_qoHWP7UfvY-29" value="Yes" style="text;html=1;align=center;verticalAlign=middle;resizable=0;points=[];autosize=1;" vertex="1" parent="WIyWlLk6GJQsqaUBKTNV-1">
          <mxGeometry x="40" y="530" width="30" height="20" as="geometry" />
        </mxCell>
        <mxCell id="-DNvlpLLM_qoHWP7UfvY-30" value="No" style="text;html=1;align=center;verticalAlign=middle;resizable=0;points=[];autosize=1;" vertex="1" parent="WIyWlLk6GJQsqaUBKTNV-1">
          <mxGeometry x="210" y="530" width="30" height="20" as="geometry" />
        </mxCell>
        <mxCell id="-DNvlpLLM_qoHWP7UfvY-33" value="Found suspiscious things?" style="rhombus;whiteSpace=wrap;html=1;shadow=0;fontFamily=Helvetica;fontSize=12;align=center;strokeWidth=1;spacing=6;spacingTop=-4;arcSize=20;" vertex="1" parent="WIyWlLk6GJQsqaUBKTNV-1">
          <mxGeometry x="200" y="680" width="100" height="80" as="geometry" />
        </mxCell>
        <mxCell id="-DNvlpLLM_qoHWP7UfvY-38" value="" style="edgeStyle=orthogonalEdgeStyle;rounded=0;orthogonalLoop=1;jettySize=auto;html=1;shadow=0;labelBackgroundColor=none;strokeWidth=1;" edge="1" parent="WIyWlLk6GJQsqaUBKTNV-1" source="-DNvlpLLM_qoHWP7UfvY-35" target="-DNvlpLLM_qoHWP7UfvY-37">
          <mxGeometry relative="1" as="geometry" />
        </mxCell>
        <mxCell id="-DNvlpLLM_qoHWP7UfvY-47" value="" style="edgeStyle=orthogonalEdgeStyle;rounded=0;orthogonalLoop=1;jettySize=auto;html=1;shadow=0;labelBackgroundColor=none;strokeWidth=1;" edge="1" parent="WIyWlLk6GJQsqaUBKTNV-1" source="-DNvlpLLM_qoHWP7UfvY-35" target="-DNvlpLLM_qoHWP7UfvY-46">
          <mxGeometry relative="1" as="geometry" />
        </mxCell>
        <mxCell id="-DNvlpLLM_qoHWP7UfvY-49" value="" style="edgeStyle=orthogonalEdgeStyle;rounded=0;orthogonalLoop=1;jettySize=auto;html=1;shadow=0;labelBackgroundColor=none;strokeWidth=1;" edge="1" parent="WIyWlLk6GJQsqaUBKTNV-1" source="-DNvlpLLM_qoHWP7UfvY-35" target="-DNvlpLLM_qoHWP7UfvY-48">
          <mxGeometry relative="1" as="geometry" />
        </mxCell>
        <mxCell id="-DNvlpLLM_qoHWP7UfvY-35" value="Anyone alone?" style="rhombus;whiteSpace=wrap;html=1;shadow=0;fontFamily=Helvetica;fontSize=12;align=center;strokeWidth=1;spacing=6;spacingTop=-4;arcSize=20;" vertex="1" parent="WIyWlLk6GJQsqaUBKTNV-1">
          <mxGeometry x="-180" y="575" width="100" height="80" as="geometry" />
        </mxCell>
        <mxCell id="-DNvlpLLM_qoHWP7UfvY-37" value="Stay with them, wait until in blind spot then kill (maybe SR)" style="whiteSpace=wrap;html=1;shadow=0;strokeWidth=1;spacing=6;spacingTop=-4;arcSize=20;" vertex="1" parent="WIyWlLk6GJQsqaUBKTNV-1">
          <mxGeometry x="-190" y="690" width="120" height="60" as="geometry" />
        </mxCell>
        <mxCell id="-DNvlpLLM_qoHWP7UfvY-46" value="Try to find group and gain trust." style="whiteSpace=wrap;html=1;shadow=0;strokeWidth=1;spacing=6;spacingTop=-4;arcSize=20;" vertex="1" parent="WIyWlLk6GJQsqaUBKTNV-1">
          <mxGeometry x="-350" y="585" width="120" height="60" as="geometry" />
        </mxCell>
        <mxCell id="-DNvlpLLM_qoHWP7UfvY-50" style="edgeStyle=orthogonalEdgeStyle;rounded=0;orthogonalLoop=1;jettySize=auto;html=1;entryX=0.5;entryY=0;entryDx=0;entryDy=0;shadow=0;labelBackgroundColor=none;strokeWidth=1;" edge="1" parent="WIyWlLk6GJQsqaUBKTNV-1" source="-DNvlpLLM_qoHWP7UfvY-48" target="-DNvlpLLM_qoHWP7UfvY-27">
          <mxGeometry relative="1" as="geometry" />
        </mxCell>
        <mxCell id="-DNvlpLLM_qoHWP7UfvY-48" value="&lt;span&gt;&lt;font style=&quot;font-size: 9px&quot;&gt;Not Worth&lt;/font&gt;&lt;/span&gt;" style="triangle;whiteSpace=wrap;html=1;shadow=0;strokeWidth=1;spacing=6;spacingTop=-4;arcSize=20;align=left;" vertex="1" parent="WIyWlLk6GJQsqaUBKTNV-1">
          <mxGeometry x="-160" y="440" width="60" height="55" as="geometry" />
        </mxCell>
        <mxCell id="-DNvlpLLM_qoHWP7UfvY-51" value="Other&lt;br&gt;Side&lt;br&gt;Of&lt;br&gt;Map" style="text;html=1;align=center;verticalAlign=middle;resizable=0;points=[];autosize=1;" vertex="1" parent="WIyWlLk6GJQsqaUBKTNV-1">
          <mxGeometry x="-120" y="500" width="50" height="60" as="geometry" />
        </mxCell>
        <mxCell id="-DNvlpLLM_qoHWP7UfvY-52" value="No" style="text;html=1;align=center;verticalAlign=middle;resizable=0;points=[];autosize=1;" vertex="1" parent="WIyWlLk6GJQsqaUBKTNV-1">
          <mxGeometry x="-210" y="590" width="30" height="20" as="geometry" />
        </mxCell>
        <mxCell id="-DNvlpLLM_qoHWP7UfvY-53" value="Yes" style="text;html=1;align=center;verticalAlign=middle;resizable=0;points=[];autosize=1;" vertex="1" parent="WIyWlLk6GJQsqaUBKTNV-1">
          <mxGeometry x="-130" y="655" width="30" height="20" as="geometry" />
        </mxCell>
      </root>
    </mxGraphModel>
  </diagram>
</mxfile>
